# xmcd
#
# Track frame offsets: 
#        150
#        28015
#        66580
#        92932
#        119680
#        153997
#        154990
#        173975
#        209300
#        240100
#        262827
#
# Disc length: 3884 seconds
#
# Revision: 0
# Processed by: cddbd v1.5.2PL0 Copyright (c) Steve Scherf et al.
# Submitted via: ExactAudioCopy v0.99pb5
#
DISCID=940f2a0b
DTITLE=DemBones - X-Rayed - DemBones Live
DYEAR=1996
DGENRE=Blues
TTITLE0=Caddy Daddy
TTITLE1=Maria Dance
TTITLE2=Asphalt Angel
TTITLE3=Bless Me St. Rita
TTITLE4=Cholita
TTITLE5=How's My Hair
TTITLE6=Ralph
TTITLE7=Washed in Neon
TTITLE8=Lost T-Bird
TTITLE9=Chicken Bits
TTITLE10=See You in the Evening
EXTD=
EXTT0=
EXTT1=
EXTT2=
EXTT3=
EXTT4=
EXTT5=
EXTT6=
EXTT7=
EXTT8=
EXTT9=
EXTT10=
PLAYORDER=
